<svg width="126" height="126" viewBox="0 0 126 126" fill="none" xmlns="http://www.w3.org/2000/svg">
<g filter="url(#filter0_d_12743_34)">
<circle cx="63" cy="56" r="50" fill="url(#paint0_linear_12743_34)" shape-rendering="crispEdges"/>
</g>
<path d="M64 37.8C57.1438 37.8 51.3938 42.625 49.95 49.05C50.0969 49.0344 50.25 49 50.4 49C50.8094 49 51.2031 49.0844 51.575 49.2C52.9313 43.5906 57.9781 39.4 64 39.4C70.0188 39.4 75.0688 43.5906 76.425 49.2C76.7969 49.0844 77.1875 49 77.6 49C77.75 49 77.9031 49.0344 78.05 49.05C76.6063 42.625 70.8531 37.8 64 37.8ZM50.4 50.6C49.0781 50.6 48 51.6781 48 53V65C48 66.3219 49.0781 67.4 50.4 67.4C51.7219 67.4 52.8 66.3219 52.8 65V53C52.8 51.6781 51.7219 50.6 50.4 50.6ZM77.6 50.6C76.2781 50.6 75.2 51.6781 75.2 53V65C75.2 66.3219 76.2781 67.4 77.6 67.4C78.9219 67.4 80 66.3219 80 65V53C80 51.6781 78.9219 50.6 77.6 50.6ZM46.4 53.1C44.9563 54.2594 44 56.4344 44 59C44 61.5656 44.9563 63.7406 46.4 64.9V53.1ZM81.6 53.1V64.9C83.0438 63.7406 84 61.5656 84 59C84 56.4344 83.0438 54.2594 81.6 53.1ZM76.475 68.825C75.7688 70.9969 73.9344 72.2 71.2 72.2H70.325C70.3781 72.4594 70.4 72.725 70.4 73C70.4 73.275 70.3781 73.5406 70.325 73.8H71.2C74.7938 73.8 77.2812 71.9938 78.1 68.95C77.9313 68.9719 77.7719 69 77.6 69C77.2062 69 76.8344 68.9313 76.475 68.825ZM62.4 70.6C61.0781 70.6 60 71.6781 60 73C60 74.3219 61.0781 75.4 62.4 75.4H66.4C67.7219 75.4 68.8 74.3219 68.8 73C68.8 71.6781 67.7219 70.6 66.4 70.6H62.4Z" fill="white"/>
<defs>
<filter id="filter0_d_12743_34" x="0" y="0" width="126" height="126" filterUnits="userSpaceOnUse" color-interpolation-filters="sRGB">
<feFlood flood-opacity="0" result="BackgroundImageFix"/>
<feColorMatrix in="SourceAlpha" type="matrix" values="0 0 0 0 0 0 0 0 0 0 0 0 0 0 0 0 0 0 127 0" result="hardAlpha"/>
<feMorphology radius="7" operator="erode" in="SourceAlpha" result="effect1_dropShadow_12743_34"/>
<feOffset dy="7"/>
<feGaussianBlur stdDeviation="10"/>
<feComposite in2="hardAlpha" operator="out"/>
<feColorMatrix type="matrix" values="0 0 0 0 0 0 0 0 0 0.88 0 0 0 0 1 0 0 0 1 0"/>
<feBlend mode="normal" in2="BackgroundImageFix" result="effect1_dropShadow_12743_34"/>
<feBlend mode="normal" in="SourceGraphic" in2="effect1_dropShadow_12743_34" result="shape"/>
</filter>
<linearGradient id="paint0_linear_12743_34" x1="63" y1="6" x2="63" y2="106" gradientUnits="userSpaceOnUse">
<stop stop-color="#03E1FF" stop-opacity="0.66"/>
<stop offset="1" stop-color="#13CDC2"/>
</linearGradient>
</defs>
</svg>
